<svg width="50" height="38" viewBox="0 0 50 38" fill="none" xmlns="http://www.w3.org/2000/svg">
<g filter="url(#filter0_d_308_52012)">
<rect x="1" width="48" height="36" rx="6" fill="white"/>
<path fill-rule="evenodd" clip-rule="evenodd" d="M18 24H33C33.55 24 34 23.55 34 23V19C34 18.45 33.55 18 33 18H18C17.45 18 17 18.45 17 19V23C17 23.55 17.45 24 18 24ZM17 12V16C17 16.55 17.45 17 18 17H33C33.55 17 34 16.55 34 16V12C34 11.45 33.55 11 33 11H18C17.45 11 17 11.45 17 12Z" fill="#969696"/>
</g>
<defs>
<filter id="filter0_d_308_52012" x="0" y="0" width="50" height="38" filterUnits="userSpaceOnUse" color-interpolation-filters="sRGB">
<feFlood flood-opacity="0" result="BackgroundImageFix"/>
<feColorMatrix in="SourceAlpha" type="matrix" values="0 0 0 0 0 0 0 0 0 0 0 0 0 0 0 0 0 0 127 0" result="hardAlpha"/>
<feOffset dy="1"/>
<feGaussianBlur stdDeviation="0.5"/>
<feColorMatrix type="matrix" values="0 0 0 0 0 0 0 0 0 0 0 0 0 0 0 0 0 0 0.06 0"/>
<feBlend mode="normal" in2="BackgroundImageFix" result="effect1_dropShadow_308_52012"/>
<feBlend mode="normal" in="SourceGraphic" in2="effect1_dropShadow_308_52012" result="shape"/>
</filter>
</defs>
</svg>
